<svg width="1024" height="1024" xmlns="http://www.w3.org/2000/svg" p-id="6024" version="1.1" class="icon" t="1757428282390">

 <g>
  <title>Layer 1</title>
  <path id="svg_1" p-id="6025" fill="#1296DB" d="m928,444l-108,0l0,-113.6c0,-17.7 -14.3,-32 -32,-32l-315,0l-117.3,-112.2c-1.5,-1.4 -3.5,-2.2 -5.5,-2.2l-254.2,0c-17.7,0 -32,14.3 -32,32l0,592c0,17.7 14.3,32 32,32l698,0c13,0 24.8,-7.9 29.7,-20l134,-332c1.5,-3.8 2.3,-7.9 2.3,-12c0,-17.7 -14.3,-32 -32,-32zm-180,0l-510,0c-13,0 -24.8,7.9 -29.7,20l-72.3,179.2l0,-387.2l188.5,0l119.6,114.4l303.9,0l0,73.6z"/>
 </g>
</svg>