<?xml version="1.0" standalone="no"?><!DOCTYPE svg PUBLIC "-//W3C//DTD SVG 1.1//EN" "http://www.w3.org/Graphics/SVG/1.1/DTD/svg11.dtd"><svg t="1754224631132" class="icon" viewBox="0 0 1025 1024" version="1.1" xmlns="http://www.w3.org/2000/svg" p-id="4476" xmlns:xlink="http://www.w3.org/1999/xlink" width="200.1953125" height="200"><path d="M583.93088 378.026667c-19.029333-15.104-72.448 10.197333-87.552 47.701333-18.986667 47.658667-47.146667 117.205333-74.752 147.669333-29.141333 32.042667-32.042667 7.296-29.141333-11.178666 6.741333-43.52 49.194667-144.298667 72.405333-172.714667-8.618667-12.757333-64.853333-10.922667-103.936 49.749333-14.592 22.912-47.914667 99.242667-84.906667 159.402667-8.106667 13.013333-18.261333 3.925333-10.410666-26.538667 8.832-35.2 34.901333-131.797333 68.48-207.872 88.064-17.450667 181.546667-29.696 253.184-29.952 9.642667-2.602667 16.128-11.221333 0-11.733333-61.738667-2.090667-154.453333 5.205333-241.194667 16.170667 16.682667-33.365333 34.645333-59.904 52.864-71.125334-19.797333-12.501333-59.904-7.552-82.816 26.325334a450.133333 450.133333 0 0 0-29.952 53.12c-63.573333 9.898667-118.016 21.077333-145.621333 31.530666-28.629333 10.922667-25.514667 45.568-8.064 39.04 36.224-13.525333 85.162667-27.605333 139.605333-40.106666-34.645333 78.165333-61.738667 170.368-68.224 207.872-16.170667 91.178667 40.362667 90.624 67.968 54.698666 29.952-39.338667 92.458667-177.664 102.101333-192.213333 2.858667-4.949333 6.784-2.346667 4.693334 2.048-69.802667 139.349333-63.829333 193.28-7.296 181.290667 25.514667-5.461333 69.546667-49.194667 81.024-71.893334 2.346667-5.461333 7.296-4.949333 6.229333-2.602666-44.288 114.901333-100.522667 207.872-138.282667 237.056-34.389333 26.282667-59.946667-30.762667 61.696-112.554667 18.005333-12.202667 9.642667-28.885333-10.666666-23.168-62.762667 9.898667-242.474667 66.944-321.408 121.642667-6.016 4.181333-11.477333 7.552-11.221334 16.170666 0.256 4.949333 8.874667 3.114667 13.056 0.512 102.101333-61.226667 185.685333-85.162667 281.557334-105.258666 1.28 0.554667 2.858667 0.810667 4.138666 0.298666 4.437333-1.066667 4.181333 1.28 1.322667 3.114667a170.325333 170.325333 0 0 1-14.592 7.552c-64.597333 25.258667-103.68 80.981333-89.856 109.397333 11.733333 24.490667 75.008 15.616 104.96-0.512 73.472-39.850667 126.848-118.016 163.328-225.834666 31.786667-95.616 71.893333-203.946667 81.28-207.104z m-425.642667 308.693333c26.581333-31.786667 29.696-64.597333 9.130667-125.568-13.013333-38.528-34.645333-68.224-18.773333-92.202667 16.938667-25.514667 52.906667-0.768 22.954666 33.322667l5.973334 4.181333c35.968 4.181333 53.674667-45.056 26.837333-59.136-70.869333-36.992-132.864 34.133333-105.514667 116.437334 11.733333 34.901333 28.16 71.893333 14.848 101.333333-11.434667 25.258667-33.578667 40.106667-48.426666 40.618667-31.018667 1.578667-10.410667-69.546667 25.258666-87.253334 3.114667-1.536 7.552-3.626667 3.370667-8.832-43.989333-4.949333-69.802667 15.36-84.650667 43.733334-43.221333 82.56 82.048 113.066667 148.992 33.365333z m852.522667-88.064c-119.552-15.616-377.386667 5.205333-491.221333 35.456-33.877333 8.832-24.490667 26.794667-7.296 23.424 0.256 0 7.552-1.834667 7.808-1.834667 93.525333-18.218667 320.384-34.133333 452.693333-8.832 15.914667 2.858667 63.573333-44.8 38.016-48.213333z m-393.557333-14.037333c33.322667-16.682667 82.816-119.850667 115.370666-176.341334 2.346667-4.181333 6.528-0.810667 4.181334 2.048-82.304 141.696-47.402667 158.122667-14.848 156.032 43.52-2.602667 83.626667-65.109333 92.458666-79.189333 3.669333-5.461333 5.76-1.024 3.669334 2.901333-2.090667 6.485333-9.642667 17.962667-16.682667 33.578667-9.898667 22.144 0.512 30.72 9.130667 34.645333 13.525333 6.528 50.517333 2.346667 56.234666-20.309333-36.949333-0.768 51.584-175.317333 60.714667-185.984-24.746667-14.336-63.018667 1.322667-80.512 35.669333-37.205333 73.728-68.48 133.12-88.021333 134.144-38.016 2.090667 43.776-164.352 57.045333-169.557333-8.064-11.733333-59.904-6.784-88.832 38.016-10.410667 16.170667-73.941333 128.682667-89.6 147.2-27.605333 32.810667-29.696 4.693333-21.888-28.16 2.602667-11.178667 7.04-25.514667 12.8-41.386667 18.218667-41.173333 37.76-54.186667 49.749333-67.498666 80.469333-89.301333 126.592-161.749333 108.330667-190.122667-16.128-25.258667-70.058667-14.08-104.704 38.016-63.829333 95.616-122.666667 226.602667-130.218667 286.549333-7.296 59.904 36.181333 64.298667 65.621334 49.749334z m314.666666-140.672c10.154667 25.002667 25.514667 49.749333 16.384 71.637333-7.552 18.730667-17.450667 26.581333-28.373333 28.373333-15.36 2.602667-11.221333-45.568 15.104-59.904 2.346667-1.28 5.717333-7.552 2.602667-11.178666-33.322667-1.834667-52.096 14.037333-62.250667 35.157333-29.44 61.738667 66.688 78.634667 113.834667 17.962667 18.730667-24.234667 19.541333-48.170667 1.536-91.690667-11.434667-27.605333-28.885333-48.170667-17.962667-66.432 11.733333-19.242667 39.850667-2.602667 18.773333 23.210667l4.693334 2.602666c27.349333 1.536 38.528-34.901333 17.706666-44.032-54.954667-23.424-106.282667 35.669333-82.048 94.293334z m-280.789333-34.645334c2.858667-6.528 4.693333-8.32 9.642667-19.285333 28.629333-63.018667 64.597333-129.450667 89.344-160.426667 15.36-16.170667 36.949333 5.717333-2.090667 65.621334a604.586667 604.586667 0 0 1-77.354667 96.64v0.256c-7.296 8.064-13.824 14.848-16.682666 18.773333-2.090667 2.602667-4.437333 2.090667-2.858667-1.578667z" p-id="4477"></path></svg>