<svg width="1024" height="1024" xmlns="http://www.w3.org/2000/svg" p-id="6112" version="1.1" class="icon" t="1754622589914">
 <g>
  <title>Layer 1</title>
  <path stroke="null" id="svg_1" p-id="6123" fill="#90CAF9" d="m207.32321,1024.25854l-159.50579,0l0,-214.83432l109.66023,0l49.84556,51.15103l0,163.68329z"/>
  <path stroke="null" id="svg_2" p-id="6124" fill="#E1F5FE" d="m208.2007,861.69035l-47.35328,0l0,-48.59348l47.35328,48.59348z"/>
  <path stroke="null" id="svg_3" p-id="6125" fill="#1976D2" d="m80.82064,928.16276l84.73745,0l0,10.23021l-84.73745,0l0,-10.23021zm0,20.46041l64.79923,0l0,10.23021l-64.79923,0l0,-10.23021zm0,20.46041l84.73745,0l0,10.2302l-84.73745,0l0,-10.2302zm0,20.46041l64.79923,0l0,10.23021l-64.79923,0l0,-10.23021z"/>
  <path id="svg_1" p-id="6113" fill="#2196F3" d="m746.223,102.24l-359.8,330.82l-201.076,-151.562l-83.1,48.367l198.205,182.132l-198.206,182.132l83.101,48.51l201.076,-151.559l359.8,330.677l175.527,-85.251l0,-649.012l-175.527,-85.254zm0,217.58l0,384.34l-255.04,-192.177l255.04,-192.163z"/>
 </g>

</svg>