<svg width="160" height="192" xmlns="http://www.w3.org/2000/svg" fill="none">
 <g clip-path="url(#clip0)" id="Layer_1">
  <!-- g标签将元素分组（类似PS的图层），便于整体管理 -->
  <title>Layer 1</title>
  <!-- title 图层名称（辅助信息，不影响渲染）-->
  <!-- path
		  d="path-data"         定义路径的路径数据
		  fill="fill-color"     路径的填充颜色
		  stroke="stroke-color" 路径的描边颜色
		  stroke-width="width"  路径的描边宽度
		-->
  <path id="svg_1" fill="url(#paint0_linear_1288_1252)" d="m0.12699,43.8989c-0.99027,-6.7734 3.91876,-13.0359 10.96451,-13.9879l102.0605,-13.7889c7.045,-0.9519 13.56,3.7672 14.55,10.5406l20.171,137.9723c0.99,6.774 -3.919,13.036 -10.965,13.988l-97.8074,13.214c-9.3943,1.27 -18.0803,-5.023 -19.4005,-14.053l-19.57311,-133.8851z"/>
  <path id="svg_2" fill="url(#paint1_linear_1288_1252)" d="m10.1376,30.5728c-1.07273,-7.6941 4.2451,-14.8081 11.8776,-15.8894l102.6628,-14.54474c7.632,-1.08134 14.689,4.2794 15.762,11.97354l19.422,139.3148c1.073,7.694 -4.245,14.808 -11.877,15.89l-102.6626,14.544c-7.6325,1.082 -14.6895,-4.279 -15.7622,-11.973l-19.4226,-139.3152z"/>
  <path id="svg_3" fill="white" d="m19.0979,33.7417c-0.7633,-5.4664 3.0204,-10.5207 8.451,-11.289l94.3971,-13.35418c5.43,-0.76827 10.451,3.04038 11.215,8.50688l18.241,130.6526c0.763,5.467 -3.02,10.521 -8.451,11.289l-94.3966,13.354c-5.4306,0.769 -10.4517,-3.04 -11.215,-8.506l-18.2415,-130.6533z"/>
  <path id="svg_4" stroke-width="4" stroke="url(#paint2_linear_1288_1252)" d="m118.649,103.244l-61.8264,8.132c-2.439,0.321 -4.1383,2.431 -3.7956,4.714l4.0343,26.865c0.3428,2.282 2.5978,3.872 5.0368,3.552l61.8259,-8.132c2.439,-0.321 4.139,-2.432 3.796,-4.714l-4.034,-26.865c-0.343,-2.283 -2.598,-3.873 -5.037,-3.552z"/>
  <path id="svg_5" fill="url(#paint3_linear_1288_1252)" d="m64.6477,140.356l-3.3556,-23.213l7.282,-0.995l8.5157,7.539l6.0484,-9.53l7.282,-0.994l3.3562,23.212l-7.2825,0.995l-1.9246,-13.313l-6.0484,9.53l-8.5157,-7.54l1.9246,13.313l-7.2821,0.996zm45.5123,-6.22l-12.551,-9.771l7.282,-0.996l-1.728,-11.948l7.283,-0.994l1.727,11.947l7.282,-0.995l-9.295,12.757z"/>
  <path id="svg_6" fill="#43db8d" d="m106.461,37.6734l-21.3713,51.5081c-0.4413,1.0635 -1.9429,1.2726 -2.6796,0.3735l-35.8476,-43.7699c-0.8025,-0.9798 -0.0213,-2.404 1.2955,-2.3618l29.0542,0.9323c0.1854,0.0061 0.3706,-0.0193 0.5468,-0.0749l27.07,-8.5207c1.249,-0.3931 2.411,0.758 1.932,1.9134z"/>
  <path id="svg_7" fill="url(#paint5_linear_1288_1252)" d="m88.8117,31.4996l-20.3995,6.7033c-0.3353,0.1101 -0.5503,0.4194 -0.5229,0.7521l1.7017,20.6721c0.0401,0.4869 0.5659,0.7978 1.0508,0.6214l5.6514,-2.0577c0.5289,-0.1924 1.0884,0.1935 1.0516,0.7256l-0.5679,8.2261c-0.0381,0.5536 0.5654,0.941 1.1003,0.7059l3.4544,-1.5187c0.5356,-0.2354 1.1399,0.1532 1.1003,0.7074l-0.9239,12.9258c-0.0578,0.8086 1.1144,1.0866 1.479,0.3507l0.2435,-0.4914l12.3995,-34.3962c0.2077,-0.576 -0.3748,-1.1217 -0.9847,-0.923l-5.849,1.9044c-0.5495,0.1788 -1.1017,-0.251 -1.0183,-0.7924l2.0547,-13.3238c0.0835,-0.5424 -0.4715,-0.9724 -1.021,-0.7916z"/>
 </g>
 <defs>
  <!-- linearGradient 线性渐变 -->
  <!-- clipPath 定义裁剪路径, 裁剪路径可以遮罩其他元素，只显示路径内部的内容-->
  <clipPath id="clip0">
   <rect id="svg_8" fill="white" height="192" width="160"/>
  </clipPath>
  <linearGradient y2="0.99739" x2="1.00303" y1="0.00235" x1="0.00302" id="paint0_linear_1288_1252">
   <stop stop-color="rgba(255, 216, 89, 0.2)"/>
   <stop stop-color="rgba(61, 214, 140, 0.2)" offset="1"/>
  </linearGradient>
  <linearGradient y2="0.89379" x2="0.9925" y1="0.10524" x1="0.00791" id="paint1_linear_1288_1252">
   <stop stop-color="rgba(255, 216, 89, 1)"/>
   <stop stop-color="rgba(61, 214, 140, 1)" offset="1"/>
  </linearGradient>
  <linearGradient y2="0.96632" x2="0.92572" y1="0.2578" x1="0.04943" id="paint2_linear_1288_1252">
   <stop stop-color="rgba(255, 216, 89, 1)"/>
   <stop stop-color="rgba(61, 214, 140, 1)" offset="1"/>
  </linearGradient>
  <linearGradient y2="0.78349" x2="1.0322" y1="0.2376" x1="0.00814" id="paint3_linear_1288_1252">
   <stop stop-color="rgba(255, 216, 89, 1)"/>
   <stop stop-color="rgba(61, 214, 140, 1)" offset="1"/>
  </linearGradient>
  <linearGradient y2="0.88784" x2="0.62036" y1="0.06371" x1="0.21383" id="paint5_linear_1288_1252">
   <stop stop-color="#FFEA83"/>
   <stop stop-color="#FFDD35" offset="0.08333"/>
   <stop stop-color="#FFA800" offset="1"/>
  </linearGradient>
 </defs>
</svg>