<svg width="120" height="144" xmlns="http://www.w3.org/2000/svg" fill="none">
 <g clip-path="url(#clip0)" id="Layer_1">
  <!-- g标签将元素分组（类似PS的图层），便于整体管理 -->
  <title>Layer 1</title>
  <!-- title 图层名称（辅助信息，不影响渲染）-->
  <!-- path
		  d="path-data"         定义路径的路径数据
		  fill="fill-color"     路径的填充颜色
		  stroke="stroke-color" 路径的描边颜色
		  stroke-width="width"  路径的描边宽度
		-->
  <path stroke="null" id="svg_1" fill="url(#paint0_linear_1288_1252)" d="m0.18947,32.82892c-0.73292,-5.01312 2.90035,-9.64812 8.11503,-10.35271l75.53694,-10.20543c5.21414,-0.70453 10.03603,2.78817 10.76874,7.80129l14.92894,102.11595c0.73271,5.01357 -2.90053,9.64821 -8.11539,10.3528l-72.38913,9.77995c-6.95289,0.93996 -13.38157,-3.71762 -14.35869,-10.40089l-14.48644,-99.09092l0,-0.00003z"/>
  <path stroke="null" id="svg_2" fill="url(#paint1_linear_1288_1252)" d="m7.5985,22.96601c-0.79394,-5.69454 3.14189,-10.95976 8.79083,-11.76004l75.9827,-10.76485c5.64858,-0.80031 10.87161,3.16728 11.66576,8.86185l14.37458,103.10956c0.79415,5.69448 -3.1418,10.9597 -8.79041,11.76049l-75.98255,10.76431c-5.64897,0.80082 -10.87197,-3.16698 -11.66591,-8.86146l-14.37503,-103.10983l0.00003,-0.00003z"/>
  <path stroke="null" id="svg_3" fill="white" d="m14.23021,25.31138c-0.56492,-4.0458 2.23546,-7.78659 6.25476,-8.35522l69.8651,-9.88369c4.01885,-0.5686 7.735,2.25025 8.30043,6.29611l13.50053,96.69848c0.56471,4.04624 -2.23516,7.78679 -6.25476,8.35522l-69.86474,9.88354c-4.0193,0.56914 -7.73551,-2.24995 -8.30043,-6.29545l-13.50089,-96.69902l0,0.00003z"/>
  <path stroke-width="2" stroke="url(#paint2_linear_1288_1252)" id="svg_4" d="m87.90988,76.75137l-45.75889,6.01865c-1.80515,0.23758 -3.06284,1.79923 -2.80919,3.48893l2.98587,19.88331c0.25372,1.68895 1.92267,2.86574 3.72783,2.62891l45.75853,-6.01865c1.80515,-0.23758 3.06335,-1.79997 2.80948,-3.48893l-2.98566,-19.88331c-0.25387,-1.6897 -1.92282,-2.86649 -3.72798,-2.62891z"/>
  <path stroke="null" id="svg_5" fill="url(#paint3_linear_1288_1252)" d="m47.94247,104.21866l-2.48355,-17.18039l5.38953,-0.73642l6.30263,5.57975l4.47652,-7.05334l5.38953,-0.73567l2.484,17.17964l-5.38992,0.73642l-1.42443,-9.85321l-4.47652,7.05334l-6.30263,-5.5805l1.42443,9.85321l-5.38962,0.73717l0.00003,0zm33.68453,-4.60353l-9.28925,-7.23169l5.38953,-0.73717l-1.27892,-8.84295l5.39028,-0.73567l1.2782,8.8422l5.38953,-0.73642l-6.87941,9.44171l0.00003,0z"/>
  <path stroke="null" id="svg_6" fill="#43db8d" d="m78.88932,28.22132l-15.81731,38.12213c-0.32662,0.78711 -1.43799,0.94187 -1.98321,0.27644l-26.53149,-32.39493c-0.59393,-0.72516 -0.01578,-1.77926 0.95882,-1.74803l21.50358,0.69001c0.13722,0.00452 0.27429,-0.01428 0.40471,-0.05542l20.03502,-6.30635c0.92442,-0.29093 1.78444,0.561 1.42991,1.41613l-0.00003,0z"/>
  <path stroke="null" id="svg_7" fill="url(#paint5_linear_1288_1252)" d="m65.82673,23.65195l-15.09807,4.96123c-0.24815,0.0815 -0.40728,0.3104 -0.38701,0.55666l1.25946,15.29981c0.02967,0.36037 0.41884,0.59046 0.77771,0.45992l4.18271,-1.52293c0.39144,-0.1424 0.80555,0.14321 0.77831,0.53702l-0.42031,6.08829c-0.0282,0.40974 0.41845,0.69645 0.81436,0.52247l2.55667,-1.12403c0.39641,-0.17422 0.84367,0.11339 0.81436,0.52357l-0.68379,9.56662c-0.04279,0.59845 0.82478,0.80421 1.09463,0.25956l0.18021,-0.36369l9.17712,-25.45728c0.15372,-0.4263 -0.2774,-0.8302 -0.72879,-0.68313l-4.32894,1.40949c-0.40668,0.13234 -0.81537,-0.18578 -0.75367,-0.58648l1.52072,-9.86121c0.0618,-0.40144 -0.34896,-0.71968 -0.75567,-0.58588z"/>
 </g>
 <defs>
  <!-- linearGradient 线性渐变 -->
  <!-- clipPath 定义裁剪路径, 裁剪路径可以遮罩其他元素，只显示路径内部的内容-->
  <clipPath id="clip0">
   <rect id="svg_8" fill="white" height="192" width="160"/>
  </clipPath>
  <linearGradient y2="0.99739" x2="1.00303" y1="0.00235" x1="0.00302" id="paint0_linear_1288_1252">
   <stop stop-color="rgba(255, 216, 89, 0.2)"/>
   <stop stop-color="rgba(61, 214, 140, 0.2)" offset="1"/>
  </linearGradient>
  <linearGradient y2="0.89379" x2="0.9925" y1="0.10524" x1="0.00791" id="paint1_linear_1288_1252">
   <stop stop-color="rgba(255, 216, 89, 1)"/>
   <stop stop-color="rgba(61, 214, 140, 1)" offset="1"/>
  </linearGradient>
  <linearGradient y2="0.96632" x2="0.92572" y1="0.2578" x1="0.04943" id="paint2_linear_1288_1252">
   <stop stop-color="rgba(255, 216, 89, 1)"/>
   <stop stop-color="rgba(61, 214, 140, 1)" offset="1"/>
  </linearGradient>
  <linearGradient y2="0.78349" x2="1.0322" y1="0.2376" x1="0.00814" id="paint3_linear_1288_1252">
   <stop stop-color="rgba(255, 216, 89, 1)"/>
   <stop stop-color="rgba(61, 214, 140, 1)" offset="1"/>
  </linearGradient>
  <linearGradient y2="0.88784" x2="0.62036" y1="0.06371" x1="0.21383" id="paint5_linear_1288_1252">
   <stop stop-color="#FFEA83"/>
   <stop stop-color="#FFDD35" offset="0.08333"/>
   <stop stop-color="#FFA800" offset="1"/>
  </linearGradient>
 </defs>
</svg>