<svg width="40" height="48" xmlns="http://www.w3.org/2000/svg" fill="none">
 <g id="Layer_1" clip-path="url(#clip0)">
  <!-- g标签将元素分组（类似PS的图层），便于整体管理 -->
  <title>Layer 1</title>
  <!-- title 图层名称（辅助信息，不影响渲染）-->
  <!-- path
		  d="path-data"         定义路径的路径数据
		  fill="fill-color"     路径的填充颜色
		  stroke="stroke-color" 路径的描边颜色
		  stroke-width="width"  路径的描边宽度
		-->
  <path stroke="null" d="m0.12687,11.19009c-0.24479,-1.67435 0.9687,-3.22241 2.71037,-3.45774l25.22886,-3.40855c1.74149,-0.23531 3.35197,0.93123 3.59669,2.60558l4.98617,34.10608c0.24472,1.6745 -0.96876,3.22244 -2.71049,3.45777l-24.17751,3.26644c-2.32222,0.31394 -4.46936,-1.24166 -4.79571,-3.47383l-4.83838,-33.09574z" fill="url(#paint0_linear_1288_1252)" id="svg_1"/>
  <path stroke="null" d="m2.60144,7.89594c-0.26517,-1.90194 1.04937,-3.66049 2.93608,-3.92778l25.37774,-3.59539c1.88659,-0.2673 3.63105,1.05785 3.89629,2.9598l4.80102,34.43794c0.26524,1.90192 -1.04934,3.66047 -2.93594,3.92793l-25.37769,3.59521c-1.88672,0.26747 -3.63117,-1.05775 -3.89634,-2.95967l-4.80117,-34.43803z" fill="url(#paint1_linear_1288_1252)" id="svg_2"/>
  <path stroke="null" d="m4.81639,8.67928c-0.18868,-1.35127 0.74663,-2.60067 2.08905,-2.79059l23.3345,-3.30109c1.34227,-0.18991 2.58344,0.75157 2.77229,2.10286l4.50909,32.29668c0.18861,1.35142 -0.74653,2.60074 -2.08905,2.79059l-23.33438,3.30104c-1.34242,0.19009 -2.58361,-0.75147 -2.77229,-2.10264l-4.50921,-32.29686z" fill="white" id="svg_3"/>
  <path stroke="url(#paint2_linear_1288_1252)" d="m29.42493,25.85991l-15.28318,2.01019c-0.60291,0.07935 -1.02297,0.60093 -0.93825,1.16528l0.99726,6.6409c0.08474,0.5641 0.64216,0.95714 1.24507,0.87804l15.28306,-2.01019c0.60291,-0.07935 1.02314,-0.60118 0.93835,-1.16528l-0.99719,-6.6409c-0.08479,-0.56435 -0.64221,-0.95739 -1.24512,-0.87804z" id="svg_4"/>
  <path stroke="null" d="m16.07607,35.03381l-0.82949,-5.73814l1.80007,-0.24596l2.10504,1.8636l1.49513,-2.35577l1.80007,-0.24571l0.82964,5.73789l-1.8002,0.24596l-0.47575,-3.29091l-1.49513,2.35577l-2.10504,-1.86385l0.47575,3.29091l-1.8001,0.24621zm11.25042,-1.53755l-3.10255,-2.41534l1.80007,-0.24621l-0.42715,-2.95349l1.80032,-0.24571l0.42691,2.95324l1.80007,-0.24596l-2.29768,3.15347z" fill="url(#paint3_linear_1288_1252)" id="svg_5"/>
  <path stroke="null" d="m26.41212,9.65118l-5.28288,12.73255c-0.10909,0.26289 -0.48028,0.31458 -0.66238,0.09233l-8.86135,-10.8197c-0.19837,-0.2422 -0.00527,-0.59426 0.32024,-0.58383l7.18206,0.23046c0.04583,0.00151 0.09161,-0.00477 0.13517,-0.01851l6.69157,-2.10628c0.30875,-0.09717 0.59599,0.18737 0.47758,0.47298z" fill="#43db8d" id="svg_6"/>
  <path stroke="null" d="m22.0493,8.12504l-5.04266,1.65702c-0.08288,0.02722 -0.13603,0.10367 -0.12926,0.18592l0.42065,5.11004c0.00991,0.12036 0.13989,0.19721 0.25975,0.15361l1.397,-0.50865c0.13074,-0.04756 0.26905,0.04783 0.25995,0.17936l-0.14038,2.03345c-0.00942,0.13685 0.13976,0.23261 0.27199,0.1745l0.85391,-0.37542c0.1324,-0.05819 0.28178,0.03787 0.27199,0.17487l-0.22838,3.19519c-0.01429,0.19988 0.27547,0.2686 0.3656,0.08669l0.06019,-0.12147l3.0651,-8.50257c0.05134,-0.14238 -0.09265,-0.27728 -0.24341,-0.22816l-1.44584,0.47076c-0.13583,0.0442 -0.27233,-0.06205 -0.25172,-0.19588l0.50791,-3.29358c0.02064,-0.13408 -0.11655,-0.24037 -0.25239,-0.19568z" fill="url(#paint5_linear_1288_1252)" id="svg_7"/>
 </g>
 <defs>
  <!-- linearGradient 线性渐变 -->
  <!-- clipPath 定义裁剪路径, 裁剪路径可以遮罩其他元素，只显示路径内部的内容-->
  <clipPath id="clip0">
   <rect width="160" height="192" fill="white" id="svg_8"/>
  </clipPath>
  <linearGradient id="paint0_linear_1288_1252" x1="0.00302" y1="0.00235" x2="1.00303" y2="0.99739">
   <stop stop-color="rgba(255, 216, 89, 0.2)"/>
   <stop offset="1" stop-color="rgba(61, 214, 140, 0.2)"/>
  </linearGradient>
  <linearGradient id="paint1_linear_1288_1252" x1="0.00791" y1="0.10524" x2="0.9925" y2="0.89379">
   <stop stop-color="rgba(255, 216, 89, 1)"/>
   <stop offset="1" stop-color="rgba(61, 214, 140, 1)"/>
  </linearGradient>
  <linearGradient id="paint2_linear_1288_1252" x1="0.04943" y1="0.2578" x2="0.92572" y2="0.96632">
   <stop stop-color="rgba(255, 216, 89, 1)"/>
   <stop offset="1" stop-color="rgba(61, 214, 140, 1)"/>
  </linearGradient>
  <linearGradient id="paint3_linear_1288_1252" x1="0.00814" y1="0.2376" x2="1.0322" y2="0.78349">
   <stop stop-color="rgba(255, 216, 89, 1)"/>
   <stop offset="1" stop-color="rgba(61, 214, 140, 1)"/>
  </linearGradient>
  <linearGradient id="paint5_linear_1288_1252" x1="0.21383" y1="0.06371" x2="0.62036" y2="0.88784">
   <stop stop-color="#FFEA83"/>
   <stop offset="0.08333" stop-color="#FFDD35"/>
   <stop offset="1" stop-color="#FFA800"/>
  </linearGradient>
 </defs>
</svg>