<svg width="120" height="144" xmlns="http://www.w3.org/2000/svg" fill="none">
 <g id="Layer_1" clip-path="url(#clip0)">
  <!-- g标签将元素分组（类似PS的图层），便于整体管理 -->
  <title>Layer 1</title>
  <!-- title 图层名称（辅助信息，不影响渲染）-->
  <!-- path
		  d="path-data"         定义路径的路径数据
		  fill="fill-color"     路径的填充颜色
		  stroke="stroke-color" 路径的描边颜色
		  stroke-width="width"  路径的描边宽度
		-->
  <path stroke="null" d="m0.19002,33.02031c-0.73724,-5.04265 2.91744,-9.70495 8.16284,-10.4137l75.98191,-10.26555c5.24486,-0.70868 10.09515,2.80459 10.83217,7.84724l15.01688,102.71749c0.73702,5.0431 -2.91762,9.70504 -8.1632,10.41379l-72.81555,9.83756c-6.99384,0.9455 -13.4604,-3.73952 -14.44327,-10.46216l-14.57178,-99.67464l0,-0.00003z" fill="url(#svg_19)" id="svg_1"/>
  <path stroke="null" d="m7.6427,23.0993c-0.79861,-5.72808 3.16039,-11.02432 8.84261,-11.82932l76.43029,-10.82826c5.68185,-0.80503 10.93566,3.18593 11.73448,8.91405l14.45926,103.71695c0.79882,5.72802 -3.1603,11.02426 -8.84219,11.82977l-76.43014,10.82772c-5.68225,0.80554 -10.93602,-3.18563 -11.73463,-8.91366l-14.45971,-103.71723l0.00003,-0.00003z" fill="url(#svg_9)" id="svg_2"/>
  <path stroke="null" d="m14.31348,25.45849c-0.56825,-4.06963 2.24863,-7.83245 6.2916,-8.40444l70.27666,-9.94191c4.04252,-0.57195 7.78056,2.26351 8.34932,6.3332l13.58005,97.26811c0.56804,4.07008 -2.24833,7.83266 -6.2916,8.40444l-70.27629,9.94176c-4.04297,0.5725 -7.78107,-2.26321 -8.34932,-6.33253l-13.58042,-97.26865l0,0.00003z" fill="white" id="svg_3"/>
  <path stroke-width="2" stroke="url(#svg_12)" d="m88.42717,77.2015l-46.02845,6.0541c-1.81579,0.23898 -3.08089,1.80982 -2.82573,3.50948l3.00345,20.00044c0.25521,1.6989 1.934,2.88262 3.74978,2.6444l46.02809,-6.0541c1.81579,-0.23898 3.0814,-1.81058 2.82603,-3.50948l-3.00324,-20.00044c-0.25536,-1.69966 -1.93415,-2.88338 -3.74994,-2.6444z" id="svg_4"/>
  <path stroke="null" d="m48.22432,104.83059l-2.49818,-17.28159l5.42128,-0.74076l6.33976,5.61262l4.50289,-7.09489l5.42128,-0.74001l2.49863,17.28084l-5.42167,0.74076l-1.43282,-9.91125l-4.50289,7.09489l-6.33976,-5.61337l1.43282,9.91125l-5.42137,0.74151l0.00003,0zm33.88296,-4.63065l-9.34397,-7.27429l5.42128,-0.74151l-1.28645,-8.89504l5.42203,-0.74001l1.28573,8.89429l5.42128,-0.74076l-6.91994,9.49732l0.00003,0z" fill="url(#svg_13)" id="svg_5"/>
  <path stroke="null" d="m79.35347,28.38557l-15.91048,38.3467c-0.32855,0.79175 -1.44646,0.94742 -1.99489,0.27807l-26.68778,-32.58576c-0.59743,-0.72944 -0.01587,-1.78974 0.96447,-1.75832l21.63025,0.69408c0.13803,0.00455 0.2759,-0.01437 0.40709,-0.05575l20.15304,-6.3435c0.92986,-0.29265 1.79495,0.5643 1.43833,1.42448l-0.00003,0z" fill="#43db8d" id="svg_6"/>
  <path stroke="null" d="m66.21394,23.78928l-15.18701,4.99046c-0.24961,0.08198 -0.40968,0.31222 -0.38929,0.55994l1.26687,15.38994c0.02985,0.36249 0.42131,0.59394 0.78229,0.46263l4.20735,-1.5319c0.39375,-0.14324 0.8103,0.14405 0.78289,0.54018l-0.42278,6.12415c-0.02837,0.41215 0.42092,0.70055 0.81915,0.52554l2.57173,-1.13065c0.39875,-0.17525 0.84864,0.11405 0.81915,0.52666l-0.68781,9.62297c-0.04304,0.60198 0.82963,0.80894 1.10108,0.26108l0.18127,-0.36583l9.23118,-25.60724c0.15462,-0.42881 -0.27903,-0.83509 -0.73308,-0.68715l-4.35445,1.41779c-0.40908,0.13312 -0.82018,-0.18688 -0.75811,-0.58993l1.52968,-9.9193c0.06216,-0.40381 -0.35101,-0.72392 -0.76012,-0.58933z" fill="url(#svg_17)" id="svg_7"/>
 </g>
 <defs>
  <!-- linearGradient 线性渐变 -->
  <!-- clipPath 定义裁剪路径, 裁剪路径可以遮罩其他元素，只显示路径内部的内容-->
  <clipPath id="clip0">
   <rect width="160" height="192" fill="white" id="svg_8"/>
  </clipPath>
  <linearGradient id="svg_9" x1="0.00791" y1="0.10524" x2="0.9925" y2="0.89379">
   <stop stop-color="#43bdf5" stop-opacity="0.99609"/>
   <stop offset="1" stop-color="#bd34fe" stop-opacity="0.99609"/>
  </linearGradient>
  <linearGradient id="svg_12" x1="0.04943" y1="0.2578" x2="0.92572" y2="0.96632">
   <stop stop-color="#41d1ff" stop-opacity="0.79688"/>
   <stop offset="1" stop-color="#bd34fe" stop-opacity="0.79688"/>
  </linearGradient>
  <linearGradient id="svg_13" x1="0.00814" y1="0.2376" x2="1.0322" y2="0.78349">
   <stop stop-color="#41d1ff" stop-opacity="0.79688"/>
   <stop offset="1" stop-color="#bd34fe" stop-opacity="0.79688"/>
  </linearGradient>
  <linearGradient id="svg_17" x1="0" y1="0" x2="1" y2="1">
   <stop stop-color="#41d1ff" stop-opacity="0.99609" offset="0"/>
   <stop stop-color="#bd34fe" stop-opacity="0.99609" offset="1"/>
  </linearGradient>
  <linearGradient id="svg_19" x1="0.00302" y1="0.00235" x2="1.00303" y2="0.99739">
   <stop stop-color="#43bdf5" stop-opacity="0.25"/>
   <stop offset="1" stop-color="#bd34fe" stop-opacity="0.34766"/>
  </linearGradient>
 </defs>
</svg>